<?xml version="1.0" encoding="utf-8"?>
<!-- Generator: Adobe Illustrator 21.1.0, SVG Export Plug-In . SVG Version: 6.00 Build 0)  -->
<svg version="1.1" id="Layer_1" xmlns="http://www.w3.org/2000/svg" xmlns:xlink="http://www.w3.org/1999/xlink" x="0px" y="0px"
	 viewBox="0 0 22 37" style="enable-background:new 0 0 22 37;" xml:space="preserve">
<style type="text/css">
	.st0{fill:#FFFFFF;}
</style>
<g>
	<path class="st0" d="M21,16L6,1C4.6-0.3,2.4-0.3,1,1C-0.3,2.4-0.3,4.6,1,6l15,15c1.4,1.4,3.6,1.4,4.9,0C22.4,19.6,22.4,17.4,21,16"
		/>
	<path class="st0" d="M16,16l-15,15c-1.4,1.4-1.4,3.6,0,4.9c1.4,1.4,3.6,1.4,4.9,0l15-15c1.4-1.4,1.4-3.6,0-4.9
		C19.6,14.7,17.4,14.7,16,16"/>
</g>
</svg>
